G04 DipTrace 3.0.0.2*
G04 B.gbr*
%MOIN*%
G04 #@! TF.FileFunction,Copper,L2,Bot*
G04 #@! TF.Part,Single*
%AMOUTLINE0*
4,1,8,
-0.03,0.04,
-0.03,-0.04,
-0.02,-0.05,
0.02,-0.05,
0.03,-0.04,
0.03,0.04,
0.02,0.05,
-0.02,0.05,
-0.03,0.04,
0*%
%ADD11C,0.005512*%
%ADD16C,0.02*%
%ADD29C,0.035*%
%ADD31C,0.019685*%
%ADD32C,0.035433*%
G04 #@! TA.AperFunction,Conductor*
%ADD14C,0.05*%
G04 #@! TA.AperFunction,ComponentPad*
%ADD22C,0.082677*%
%ADD24R,0.059X0.059*%
%ADD25C,0.059*%
%ADD27C,0.059055*%
G04 #@! TA.AperFunction,ViaPad*
%ADD28C,0.08X0.035*%
G04 #@! TA.AperFunction,ComponentPad*
%ADD52OUTLINE0*%
%FSLAX26Y26*%
G04*
G70*
G90*
G75*
G01*
G04 Bottom*
%LPD*%
X387992Y213189D2*
D14*
Y325689D1*
X437992Y375689D1*
X2637992D1*
X2900492Y638189D1*
Y713189D1*
X1350492Y225689D2*
X1300492Y275689D1*
X512992D1*
X887992Y600689D2*
D16*
X2675492D1*
D28*
X387992Y213189D3*
X1350492Y225689D3*
X512992Y275689D3*
X887992Y600689D3*
X2675492D3*
D22*
X2112992Y713189D3*
X2225492D3*
X2337992D3*
X2450492D3*
X2562992D3*
X2675492D3*
X2787992D3*
X2900492D3*
D52*
X587992D3*
X687992D3*
X787992D3*
X887992D3*
X987992D3*
X1087992D3*
X1187992D3*
X1287992D3*
X1387992D3*
X1487992D3*
X1587992D3*
X1687992D3*
X1787992D3*
X1887992D3*
X1987992D3*
Y113189D3*
X1887992D3*
X1787992D3*
X1687992D3*
X1587992D3*
X1487992D3*
X1387992D3*
X1287992D3*
X1187992D3*
X1087992D3*
X987992D3*
X887992D3*
X787992D3*
X687992D3*
X587992D3*
D24*
X637992Y213189D3*
D25*
X737992D3*
X837992D3*
X937992D3*
X1037992D3*
X1137992D3*
X1237992D3*
Y513189D3*
X1137992D3*
X1037992D3*
X937992D3*
X837992D3*
X737992D3*
X637992D3*
D27*
X196850Y196850D3*
X3149606D3*
G04 Bottom Clear*
%LPC*%
D29*
X387992Y213189D3*
X1350492Y225689D3*
X512992Y275689D3*
X887992Y600689D3*
X2675492D3*
D31*
X2112992Y713189D3*
X2225492D3*
X2337992D3*
X2450492D3*
X2562992D3*
X2675492D3*
X2787992D3*
X2900492D3*
D32*
X587992D3*
X687992D3*
X787992D3*
X887992D3*
X987992D3*
X1087992D3*
X1187992D3*
X1287992D3*
X1387992D3*
X1487992D3*
X1587992D3*
X1687992D3*
X1787992D3*
X1887992D3*
X1987992D3*
Y113189D3*
X1887992D3*
X1787992D3*
X1687992D3*
X1587992D3*
X1487992D3*
X1387992D3*
X1287992D3*
X1187992D3*
X1087992D3*
X987992D3*
X887992D3*
X787992D3*
X687992D3*
X587992D3*
D16*
X637992Y213189D3*
X737992D3*
X837992D3*
X937992D3*
X1037992D3*
X1137992D3*
X1237992D3*
Y513189D3*
X1137992D3*
X1037992D3*
X937992D3*
X837992D3*
X737992D3*
X637992D3*
D32*
X196850Y196850D3*
X3149606D3*
G04 BoardOutline*
%LPD*%
X354331Y472441D2*
D11*
Y787402D1*
X2992126D1*
Y472441D1*
X3307087D1*
Y196850D1*
G02X3149606Y39370I-167323J9843D01*
G01*
X196850D1*
G02X39370Y196850I9843J167323D01*
G01*
Y472441D1*
X354331D1*
M02*
